<?xml version="1.0" encoding="utf-8"?>
<!-- Generator: Adobe Illustrator 23.1.1, SVG Export Plug-In . SVG Version: 6.00 Build 0)  -->
<svg version="1.1" id="Layer_1" xmlns="http://www.w3.org/2000/svg" xmlns:xlink="http://www.w3.org/1999/xlink" x="0px" y="0px"
	 viewBox="0 0 277.7 378.2" style="enable-background:new 0 0 277.7 378.2;" xml:space="preserve">
<style type="text/css">
	.st0{enable-background:new    ;}
	.st1{fill:#231F20;}
</style>
<title>VG</title>
<g class="st0">
	<path class="st1" d="M4.3,54h40l25.9,195.6H71L96.9,54h36.4L95.1,306.2H42.5L4.3,54z"/>
</g>
<g class="st0">
	<path class="st1" d="M149.1,247.8V112.4c0-38.9,20.2-62,58.3-62s58.3,23.1,58.3,62V139h-37.5v-29.2c0-16.6-7.9-23.4-19.8-23.4
		c-11.9,0-19.8,6.8-19.8,23.4v140.8c0,16.6,7.9,23.1,19.8,23.1c11.9,0,19.8-6.5,19.8-23.1v-38.5h37.5v35.7c0,38.9-20.2,62-58.3,62
		S149.1,286.7,149.1,247.8z"/>
</g>
</svg>
